<svg xmlns="http://www.w3.org/2000/svg" width="233" height="46" viewBox="0 0 233 46">
  <g id="button" transform="translate(-87 -57)">
    <rect id="Rectangle_80" data-name="Rectangle 80" width="233" height="46" rx="23" transform="translate(87 57)" fill="#eedbeb"/>
    <path id="Path_121" data-name="Path 121" d="M-87.022-5.4a5.5,5.5,0,0,1,.345-1.912,5.506,5.506,0,0,1,1.012-1.71,4.919,4.919,0,0,1,1.628-1.23,5,5,0,0,1,2.175-.458,4.622,4.622,0,0,1,2.49.653,4.13,4.13,0,0,1,1.56,1.672l-1.32.885a2.838,2.838,0,0,0-.757-1.02,2.713,2.713,0,0,0-.99-.525,3.835,3.835,0,0,0-1.043-.15,3.067,3.067,0,0,0-1.47.337,3.263,3.263,0,0,0-1.058.892,3.986,3.986,0,0,0-.645,1.245,4.568,4.568,0,0,0-.217,1.38,4.352,4.352,0,0,0,.255,1.478,4.1,4.1,0,0,0,.713,1.26,3.365,3.365,0,0,0,1.088.862,3.042,3.042,0,0,0,1.38.315,3.449,3.449,0,0,0,1.065-.18,3.185,3.185,0,0,0,1.027-.562,2.582,2.582,0,0,0,.743-1.013l1.4.8a3.342,3.342,0,0,1-1.028,1.35,5.007,5.007,0,0,1-1.56.84,5.4,5.4,0,0,1-1.7.285,4.471,4.471,0,0,1-2.055-.472A5.188,5.188,0,0,1-85.6-1.642a5.968,5.968,0,0,1-1.05-1.77A5.534,5.534,0,0,1-87.022-5.4Zm13.86-5.25h1.59L-67.432,0H-69.2l-1.125-2.895h-4.11L-75.547,0h-1.785Zm2.5,6.51-1.71-4.665-1.77,4.665ZM-66.112,0V-10.65h1.68v9.165h5.715V0Zm7.8-5.4a5.5,5.5,0,0,1,.345-1.912,5.506,5.506,0,0,1,1.013-1.71,4.918,4.918,0,0,1,1.627-1.23,5,5,0,0,1,2.175-.458,4.622,4.622,0,0,1,2.49.653A4.13,4.13,0,0,1-49.1-8.385l-1.32.885a2.838,2.838,0,0,0-.757-1.02,2.713,2.713,0,0,0-.99-.525,3.835,3.835,0,0,0-1.042-.15,3.067,3.067,0,0,0-1.47.337,3.263,3.263,0,0,0-1.057.892,3.986,3.986,0,0,0-.645,1.245A4.568,4.568,0,0,0-56.6-5.34a4.352,4.352,0,0,0,.255,1.478,4.1,4.1,0,0,0,.712,1.26,3.365,3.365,0,0,0,1.088.862,3.042,3.042,0,0,0,1.38.315,3.449,3.449,0,0,0,1.065-.18,3.185,3.185,0,0,0,1.028-.562,2.582,2.582,0,0,0,.742-1.013l1.4.8a3.342,3.342,0,0,1-1.028,1.35,5.007,5.007,0,0,1-1.56.84,5.4,5.4,0,0,1-1.7.285,4.471,4.471,0,0,1-2.055-.472,5.188,5.188,0,0,1-1.6-1.26,5.968,5.968,0,0,1-1.05-1.77A5.534,5.534,0,0,1-58.312-5.4ZM-42.937.075A4.815,4.815,0,0,1-45.09-.36,3.719,3.719,0,0,1-46.5-1.545a5.14,5.14,0,0,1-.78-1.71,7.96,7.96,0,0,1-.248-2v-5.4h1.68v5.4a6.585,6.585,0,0,0,.15,1.418,3.952,3.952,0,0,0,.48,1.222,2.4,2.4,0,0,0,.892.855,2.805,2.805,0,0,0,1.388.315,2.785,2.785,0,0,0,1.4-.322,2.384,2.384,0,0,0,.885-.87,4.176,4.176,0,0,0,.472-1.222,6.412,6.412,0,0,0,.15-1.395v-5.4h1.7v5.4a7.848,7.848,0,0,1-.263,2.063,4.935,4.935,0,0,1-.81,1.695A3.818,3.818,0,0,1-40.822-.345,4.834,4.834,0,0,1-42.937.075ZM-36.1,0V-10.65h1.68v9.165H-28.7V0Zm11.835-10.65h1.59L-18.532,0H-20.3l-1.125-2.895h-4.11L-26.647,0h-1.785Zm2.5,6.51-1.71-4.665-1.77,4.665ZM-10.4-9.165h-3.54V0h-1.7V-9.165h-3.555V-10.65h8.79Zm8.73,7.68V0h-7.3V-10.65h7.17v1.485H-7.3v3.03h4.755V-4.74H-7.3v3.255ZM5.453-7.53V0H3.773V-10.65h1.38l6.03,7.695v-7.68h1.695V0h-1.47ZM19.718.075A4.815,4.815,0,0,1,17.565-.36a3.719,3.719,0,0,1-1.41-1.185,5.14,5.14,0,0,1-.78-1.71,7.96,7.96,0,0,1-.247-2v-5.4h1.68v5.4a6.586,6.586,0,0,0,.15,1.418,3.952,3.952,0,0,0,.48,1.222,2.4,2.4,0,0,0,.892.855,2.805,2.805,0,0,0,1.388.315,2.785,2.785,0,0,0,1.4-.322,2.384,2.384,0,0,0,.885-.87,4.176,4.176,0,0,0,.472-1.222,6.412,6.412,0,0,0,.15-1.395v-5.4h1.7v5.4a7.848,7.848,0,0,1-.263,2.063,4.935,4.935,0,0,1-.81,1.695A3.818,3.818,0,0,1,21.833-.345,4.834,4.834,0,0,1,19.718.075Zm14.655-9.24h-3.54V0H29.138V-9.165H25.583V-10.65h8.79ZM35.8,0V-10.65h4.635a2.91,2.91,0,0,1,1.32.3,3.461,3.461,0,0,1,1.043.8,3.759,3.759,0,0,1,.69,1.11,3.347,3.347,0,0,1,.248,1.26,3.639,3.639,0,0,1-.255,1.35,3.173,3.173,0,0,1-.728,1.11,2.825,2.825,0,0,1-1.1.675L44.153,0h-1.89l-2.31-3.7H37.478V0Zm1.68-5.19h2.94a1.339,1.339,0,0,0,.825-.27,1.855,1.855,0,0,0,.57-.727,2.362,2.362,0,0,0,.21-1,2.058,2.058,0,0,0-.24-1,2.054,2.054,0,0,0-.623-.712,1.414,1.414,0,0,0-.833-.27h-2.85ZM45.713,0V-10.65h1.68V0ZM57.1-1.485V0h-7.3V-10.65h7.17v1.485h-5.49v3.03h4.755V-4.74H51.473v3.255Zm3.42-6.045V0h-1.68V-10.65h1.38l6.03,7.695v-7.68h1.695V0h-1.47Zm17.64-1.635h-3.54V0H72.923V-9.165H69.368V-10.65h8.79Zm7.725,1.02a2.3,2.3,0,0,0-.435-.353,4.226,4.226,0,0,0-.675-.352,5.164,5.164,0,0,0-.84-.27A4.079,4.079,0,0,0,83-9.225a2.559,2.559,0,0,0-1.56.39,1.284,1.284,0,0,0-.51,1.08,1.1,1.1,0,0,0,.285.8,2.151,2.151,0,0,0,.87.487q.585.2,1.47.42a10.738,10.738,0,0,1,1.875.608,2.9,2.9,0,0,1,1.215.938,2.593,2.593,0,0,1,.42,1.545,3.023,3.023,0,0,1-.3,1.395,2.531,2.531,0,0,1-.84.953,3.793,3.793,0,0,1-1.245.54,6.361,6.361,0,0,1-1.515.172A7.7,7.7,0,0,1,81.585-.06a7.212,7.212,0,0,1-1.5-.488,6.527,6.527,0,0,1-1.312-.788l.765-1.44a3.316,3.316,0,0,0,.563.428,6.161,6.161,0,0,0,.855.442,6.819,6.819,0,0,0,1.065.353A4.9,4.9,0,0,0,83.2-1.41a2.787,2.787,0,0,0,1.537-.353,1.142,1.142,0,0,0,.533-1.013,1.124,1.124,0,0,0-.345-.862,2.773,2.773,0,0,0-1.005-.548q-.66-.225-1.575-.45a10.469,10.469,0,0,1-1.755-.622,2.543,2.543,0,0,1-1.058-.87,2.413,2.413,0,0,1-.353-1.358,3.019,3.019,0,0,1,.51-1.777,3.124,3.124,0,0,1,1.387-1.1,5.062,5.062,0,0,1,1.973-.367,5.737,5.737,0,0,1,1.365.157,6.157,6.157,0,0,1,1.208.427,6.278,6.278,0,0,1,1.027.615Z" transform="translate(204 85)"/>
  </g>
</svg>
